<mxfile host="app.diagrams.net" modified="2023-06-24T11:11:18.525Z" agent="Mozilla/5.0 (Windows NT 10.0; Win64; x64) AppleWebKit/537.36 (KHTML, like Gecko) Chrome/114.0.0.0 Safari/537.36 Edg/114.0.1823.58" version="21.3.7" etag="--swBwunVpCYQP6E-pc_" type="github">
  <diagram name="第 1 页" id="a9GPIlejRYcK83K9d1bZ">
    <mxGraphModel>
      <root>
        <mxCell id="0" />
        <mxCell id="1" parent="0" />
      </root>
    </mxGraphModel>
  </diagram>
</mxfile>
